<mxfile host="app.diagrams.net" modified="2021-07-23T06:58:32.628Z" agent="5.0 (Windows NT 10.0; Win64; x64) AppleWebKit/537.36 (KHTML, like Gecko) Chrome/91.0.4472.164 Safari/537.36" etag="BHA8J4mKciyX06k6dv9_" version="14.9.1" type="github">
  <diagram id="nXxsTb5pUo6OU0HRmB2k" name="第 1 页">
    <mxGraphModel dx="633" dy="225" grid="1" gridSize="10" guides="1" tooltips="1" connect="1" arrows="1" fold="1" page="1" pageScale="1" pageWidth="827" pageHeight="1169" math="0" shadow="0">
      <root>
        <mxCell id="0" />
        <mxCell id="1" parent="0" />
        <mxCell id="tvaraqb33DuimbQQaBJ7-13" value="" style="rounded=0;whiteSpace=wrap;html=1;" vertex="1" parent="1">
          <mxGeometry x="230" y="53" width="310" height="57" as="geometry" />
        </mxCell>
        <mxCell id="tvaraqb33DuimbQQaBJ7-5" style="edgeStyle=orthogonalEdgeStyle;rounded=0;orthogonalLoop=1;jettySize=auto;html=1;exitX=1;exitY=0.5;exitDx=0;exitDy=0;entryX=0;entryY=0.5;entryDx=0;entryDy=0;" edge="1" parent="1" source="tvaraqb33DuimbQQaBJ7-1" target="tvaraqb33DuimbQQaBJ7-4">
          <mxGeometry relative="1" as="geometry" />
        </mxCell>
        <mxCell id="tvaraqb33DuimbQQaBJ7-1" value="a&lt;br&gt;5字节" style="rounded=0;whiteSpace=wrap;html=1;" vertex="1" parent="1">
          <mxGeometry x="240" y="67.5" width="50" height="30" as="geometry" />
        </mxCell>
        <mxCell id="tvaraqb33DuimbQQaBJ7-7" style="edgeStyle=orthogonalEdgeStyle;rounded=0;orthogonalLoop=1;jettySize=auto;html=1;exitX=1;exitY=0.5;exitDx=0;exitDy=0;" edge="1" parent="1" source="tvaraqb33DuimbQQaBJ7-4" target="tvaraqb33DuimbQQaBJ7-6">
          <mxGeometry relative="1" as="geometry" />
        </mxCell>
        <mxCell id="tvaraqb33DuimbQQaBJ7-4" value="ab&lt;br&gt;5字节" style="rounded=0;whiteSpace=wrap;html=1;" vertex="1" parent="1">
          <mxGeometry x="320" y="67.5" width="50" height="30" as="geometry" />
        </mxCell>
        <mxCell id="tvaraqb33DuimbQQaBJ7-9" style="edgeStyle=orthogonalEdgeStyle;rounded=0;orthogonalLoop=1;jettySize=auto;html=1;exitX=1;exitY=0.5;exitDx=0;exitDy=0;entryX=0;entryY=0.5;entryDx=0;entryDy=0;" edge="1" parent="1" source="tvaraqb33DuimbQQaBJ7-6" target="tvaraqb33DuimbQQaBJ7-8">
          <mxGeometry relative="1" as="geometry" />
        </mxCell>
        <mxCell id="tvaraqb33DuimbQQaBJ7-6" value="abc&lt;br&gt;5字节" style="rounded=0;whiteSpace=wrap;html=1;" vertex="1" parent="1">
          <mxGeometry x="400" y="67.5" width="50" height="30" as="geometry" />
        </mxCell>
        <mxCell id="tvaraqb33DuimbQQaBJ7-8" value="abcde&lt;br&gt;5字节" style="rounded=0;whiteSpace=wrap;html=1;" vertex="1" parent="1">
          <mxGeometry x="480" y="67.5" width="50" height="30" as="geometry" />
        </mxCell>
        <mxCell id="tvaraqb33DuimbQQaBJ7-10" value="普通链表" style="text;html=1;strokeColor=none;fillColor=none;align=center;verticalAlign=middle;whiteSpace=wrap;rounded=0;" vertex="1" parent="1">
          <mxGeometry x="60" y="72.5" width="50" height="25" as="geometry" />
        </mxCell>
        <mxCell id="tvaraqb33DuimbQQaBJ7-11" value="压缩链表" style="text;html=1;strokeColor=none;fillColor=none;align=center;verticalAlign=middle;whiteSpace=wrap;rounded=0;" vertex="1" parent="1">
          <mxGeometry x="60" y="140" width="50" height="25" as="geometry" />
        </mxCell>
        <mxCell id="tvaraqb33DuimbQQaBJ7-14" value="data length&lt;br&gt;20" style="rounded=0;whiteSpace=wrap;html=1;" vertex="1" parent="1">
          <mxGeometry x="140" y="52.5" width="90" height="57.5" as="geometry" />
        </mxCell>
        <mxCell id="tvaraqb33DuimbQQaBJ7-15" value="1" style="rounded=0;whiteSpace=wrap;html=1;" vertex="1" parent="1">
          <mxGeometry x="140" y="137.5" width="50" height="30" as="geometry" />
        </mxCell>
        <mxCell id="tvaraqb33DuimbQQaBJ7-16" value="a&lt;br&gt;1字节" style="rounded=0;whiteSpace=wrap;html=1;" vertex="1" parent="1">
          <mxGeometry x="190" y="137.5" width="50" height="30" as="geometry" />
        </mxCell>
        <mxCell id="tvaraqb33DuimbQQaBJ7-17" value="2" style="rounded=0;whiteSpace=wrap;html=1;" vertex="1" parent="1">
          <mxGeometry x="240" y="137.5" width="50" height="30" as="geometry" />
        </mxCell>
        <mxCell id="tvaraqb33DuimbQQaBJ7-18" value="ab&lt;br&gt;2字节" style="rounded=0;whiteSpace=wrap;html=1;" vertex="1" parent="1">
          <mxGeometry x="290" y="137.5" width="50" height="30" as="geometry" />
        </mxCell>
        <mxCell id="tvaraqb33DuimbQQaBJ7-19" value="3" style="rounded=0;whiteSpace=wrap;html=1;" vertex="1" parent="1">
          <mxGeometry x="340" y="137.5" width="50" height="30" as="geometry" />
        </mxCell>
        <mxCell id="tvaraqb33DuimbQQaBJ7-20" value="abc&lt;br&gt;3字节" style="rounded=0;whiteSpace=wrap;html=1;" vertex="1" parent="1">
          <mxGeometry x="390" y="137.5" width="50" height="30" as="geometry" />
        </mxCell>
        <mxCell id="tvaraqb33DuimbQQaBJ7-21" value="5" style="rounded=0;whiteSpace=wrap;html=1;" vertex="1" parent="1">
          <mxGeometry x="440" y="137.5" width="50" height="30" as="geometry" />
        </mxCell>
        <mxCell id="tvaraqb33DuimbQQaBJ7-22" value="abcde&lt;br&gt;5字节" style="rounded=0;whiteSpace=wrap;html=1;" vertex="1" parent="1">
          <mxGeometry x="490" y="137.5" width="50" height="30" as="geometry" />
        </mxCell>
      </root>
    </mxGraphModel>
  </diagram>
</mxfile>
